<svg xmlns="http://www.w3.org/2000/svg" version="1.0" width="181" height="100" viewBox="0 0 1919.000000 1061.000000" preserveAspectRatio="xMidYMid meet">

<g transform="translate(0.000000,1061.000000) scale(0.100000,-0.100000)" fill="#white" stroke="white">
<path d="M7775 9771 c-79 -7 -178 -22 -285 -42 -30 -6 -76 -15 -103 -19 -26 -5 -62 -13 -80 -19 -17 -6 -73 -21 -124 -35 -51 -14 -101 -30 -112 -35 -11 -6 -30 -11 -43 -11 -13 0 -35 -7 -50 -14 -16 -8 -63 -27 -105 -41 -139 -48 -441 -195 -547 -267 -79 -53 -138 -91 -166 -105 -32 -16 -100 -65 -100 -72 0 -4 -10 -13 -22 -20 -35 -18 -88 -58 -139 -104 -26 -23 -72 -64 -104 -92 -32 -27 -63 -56 -69 -63 -6 -7 -19 -22 -30 -31 -40 -39 -49 -48 -111 -116 -36 -38 -77 -85 -93 -103 -15 -18 -39 -45 -54 -60 -16 -14 -28 -32 -28 -39 0 -6 -13 -21 -30 -33 -16 -12 -30 -28 -30 -36 0 -7 -13 -25 -29 -40 -16 -14 -31 -38 -34 -54 -4 -16 -15 -31 -26 -35 -11 -3 -25 -21 -31 -39 -6 -18 -21 -43 -35 -56 -13 -12 -27 -35 -30 -51 -4 -16 -15 -34 -25 -39 -11 -6 -24 -27 -30 -48 -5 -21 -21 -49 -35 -62 -15 -14 -25 -35 -25 -50 0 -16 -12 -40 -30 -58 -17 -18 -30 -43 -30 -56 0 -14 -11 -38 -25 -54 -14 -17 -29 -53 -35 -82 -6 -31 -18 -58 -30 -68 -13 -11 -24 -37 -30 -74 -5 -32 -18 -70 -30 -86 -14 -18 -25 -54 -30 -94 -5 -42 -16 -77 -30 -96 -16 -22 -25 -52 -30 -110 -5 -49 -17 -97 -30 -123 -18 -34 -24 -70 -31 -174 -5 -90 -14 -148 -28 -187 -13 -35 -21 -82 -21 -120 0 -35 -4 -69 -9 -77 -11 -17 -70 -40 -131 -51 -57 -10 -147 -38 -180 -54 -14 -7 -40 -16 -58 -19 -18 -4 -56 -18 -85 -31 -28 -13 -81 -36 -117 -51 -123 -51 -262 -128 -403 -222 -78 -52 -151 -104 -162 -116 -11 -12 -40 -35 -63 -51 -24 -17 -51 -39 -60 -50 -9 -12 -28 -29 -42 -38 -41 -27 -140 -124 -140 -136 0 -6 -13 -18 -30 -27 -16 -9 -30 -22 -30 -30 0 -7 -13 -23 -30 -35 -16 -12 -30 -27 -30 -35 0 -8 -13 -23 -30 -35 -16 -12 -30 -28 -30 -35 0 -8 -11 -22 -24 -30 -13 -9 -29 -29 -36 -44 -6 -16 -22 -38 -36 -50 -13 -11 -24 -29 -24 -40 0 -10 -11 -26 -25 -35 -14 -9 -28 -29 -31 -44 -4 -15 -20 -39 -35 -54 -17 -16 -29 -37 -29 -52 0 -16 -9 -32 -24 -41 -15 -10 -28 -33 -35 -60 -6 -24 -17 -48 -25 -52 -20 -12 -36 -48 -36 -82 0 -18 -8 -35 -18 -43 -26 -18 -42 -51 -42 -87 0 -17 -11 -42 -25 -59 -17 -21 -28 -49 -34 -95 -6 -40 -18 -77 -32 -96 -16 -22 -24 -51 -29 -108 -5 -53 -14 -90 -30 -116 -19 -32 -23 -58 -30 -190 -5 -87 -16 -178 -26 -212 -24 -84 -24 -337 0 -415 10 -33 21 -116 26 -207 7 -132 11 -158 31 -189 15 -26 24 -60 29 -116 5 -60 13 -87 31 -111 16 -22 25 -52 30 -95 5 -44 13 -70 28 -86 11 -12 25 -43 30 -68 4 -26 20 -61 35 -78 14 -18 26 -44 26 -59 0 -16 13 -44 30 -66 17 -21 30 -47 30 -59 0 -12 13 -36 30 -54 17 -18 30 -42 30 -52 0 -11 14 -35 30 -53 17 -19 30 -41 30 -49 0 -8 13 -27 30 -43 16 -16 30 -37 30 -46 0 -10 13 -27 30 -39 16 -12 30 -30 30 -40 0 -11 11 -26 23 -35 13 -8 29 -27 36 -42 13 -29 10 -25 192 -208 143 -143 234 -228 252 -234 7 -2 37 -25 67 -51 30 -26 77 -60 103 -76 27 -16 59 -36 72 -44 275 -176 590 -309 890 -374 135 -29 181 -37 300 -54 110 -15 486 -17 4705 -17 4285 0 4594 1 4720 17 157 20 235 34 305 53 28 7 70 18 95 24 109 28 126 33 145 42 11 4 49 18 85 30 36 12 98 37 138 55 41 19 75 34 77 34 2 0 41 18 87 39 95 45 214 114 305 177 35 24 65 44 68 44 8 0 78 50 100 72 12 13 34 32 49 43 89 66 351 324 361 355 3 10 15 22 26 25 12 4 25 20 31 36 5 15 18 31 27 34 10 3 23 17 30 32 7 15 21 33 30 40 10 7 24 27 32 45 7 18 24 41 36 51 13 10 23 27 23 37 0 11 14 33 30 50 17 17 30 40 30 50 0 11 14 34 30 52 17 17 30 42 30 54 0 13 9 33 19 43 26 26 41 55 41 80 0 11 11 33 25 49 13 16 29 50 35 76 6 26 20 60 31 75 11 15 24 52 28 82 4 30 17 68 29 84 14 19 25 57 32 102 5 40 19 90 31 112 15 30 23 70 29 167 6 73 17 149 27 178 16 44 18 88 18 316 0 233 -2 271 -18 315 -12 31 -22 97 -27 173 -6 96 -13 132 -30 165 -12 23 -26 74 -31 112 -6 44 -17 80 -30 98 -12 16 -24 55 -29 89 -6 37 -18 74 -34 97 -14 20 -26 49 -26 63 0 15 -12 40 -26 58 -14 17 -30 49 -36 72 -5 22 -20 54 -33 70 -14 16 -25 38 -25 47 0 10 -13 35 -30 56 -16 21 -30 43 -30 50 0 7 -13 29 -30 50 -16 21 -30 43 -30 50 0 6 -9 20 -21 31 -12 10 -30 36 -41 57 -10 21 -25 40 -33 43 -8 3 -17 16 -21 27 -3 12 -17 33 -31 47 -13 14 -54 61 -91 105 -37 44 -86 98 -109 120 -24 22 -47 45 -54 51 -11 12 -20 20 -82 80 -49 47 -179 151 -244 195 -139 95 -199 135 -215 144 -64 37 -224 117 -278 140 -36 15 -93 40 -128 56 -34 16 -67 29 -74 29 -7 0 -51 13 -98 30 -47 16 -105 34 -130 39 -44 8 -62 13 -202 45 -36 9 -86 16 -110 17 -23 0 -79 8 -122 17 l-80 17 -11 50 c-7 28 -17 61 -23 75 -5 14 -13 62 -17 105 -7 88 -21 142 -41 165 -7 8 -17 44 -23 79 -6 39 -18 72 -30 85 -11 12 -23 41 -27 65 -4 23 -17 55 -29 70 -13 14 -27 43 -33 64 -6 20 -22 51 -36 68 -14 17 -26 37 -26 46 0 8 -13 31 -30 50 -16 18 -30 40 -30 47 0 7 -11 23 -24 35 -14 13 -30 36 -36 52 -7 15 -23 35 -36 44 -13 8 -24 21 -24 28 0 7 -12 25 -27 39 -16 15 -41 43 -57 62 -15 18 -37 43 -48 54 -11 11 -25 25 -32 32 -44 47 -68 70 -107 102 -24 20 -66 56 -93 78 -81 69 -202 143 -391 239 -127 65 -292 125 -415 153 -25 5 -67 16 -94 24 -26 8 -69 14 -95 14 -25 0 -78 7 -116 15 -80 17 -360 20 -440 4 -27 -5 -81 -13 -120 -18 -38 -4 -86 -13 -105 -19 -19 -6 -57 -16 -85 -22 -83 -19 -139 -35 -160 -46 -11 -6 -35 -14 -53 -17 -18 -4 -75 -27 -125 -52 -50 -25 -103 -45 -117 -45 -36 0 -67 25 -75 59 -3 16 -17 37 -31 45 -13 9 -24 23 -24 31 0 12 -48 75 -99 130 -10 11 -24 30 -30 42 -6 12 -20 24 -30 28 -10 3 -22 16 -25 29 -3 12 -17 28 -31 34 -14 6 -25 16 -25 21 0 10 -102 114 -211 216 -93 87 -203 176 -240 196 -20 10 -39 24 -42 32 -5 14 -106 86 -139 99 -10 4 -51 29 -91 55 -147 96 -419 229 -627 306 -168 61 -258 88 -435 128 -27 6 -75 17 -106 25 -30 8 -76 14 -101 14 -24 0 -67 7 -94 16 -40 12 -114 16 -389 19 -187 2 -376 0 -420 -4z m630 -451 c101 -8 207 -23 280 -41 22 -5 72 -14 110 -21 39 -6 75 -15 82 -20 6 -5 33 -13 60 -18 47 -8 200 -58 258 -84 17 -8 57 -23 90 -34 33 -11 101 -41 150 -67 258 -135 414 -228 501 -302 28 -24 55 -43 60 -43 5 0 34 -23 64 -50 30 -27 79 -71 109 -97 29 -27 64 -59 76 -71 13 -13 28 -29 35 -35 6 -7 18 -19 26 -27 15 -16 49 -51 66 -68 5 -6 25 -27 44 -49 18 -21 45 -49 59 -63 14 -14 25 -31 25 -37 0 -6 11 -20 25 -31 14 -11 32 -36 40 -56 8 -19 24 -40 35 -46 11 -6 20 -17 20 -25 0 -8 14 -30 30 -48 17 -19 30 -40 30 -45 0 -6 14 -27 30 -45 17 -19 30 -42 30 -51 0 -9 16 -32 35 -52 19 -19 35 -38 35 -43 0 -16 99 -51 143 -51 44 0 115 31 212 92 157 98 350 171 530 199 33 6 96 16 140 24 102 19 293 19 387 1 40 -8 100 -19 133 -24 227 -38 566 -192 731 -333 32 -28 69 -56 82 -62 13 -6 30 -24 38 -39 8 -15 21 -28 29 -28 8 0 21 -13 30 -30 9 -16 20 -30 26 -30 5 0 19 -16 30 -35 11 -19 29 -37 39 -40 10 -3 21 -17 24 -31 4 -13 18 -30 31 -36 14 -6 25 -19 25 -29 0 -10 14 -34 30 -52 17 -19 30 -42 30 -52 0 -9 13 -29 28 -44 17 -15 32 -42 36 -64 4 -21 18 -48 32 -59 14 -13 24 -32 24 -49 0 -35 16 -78 39 -104 12 -13 21 -44 25 -84 3 -35 17 -87 30 -115 21 -46 25 -70 31 -244 7 -184 9 -195 31 -222 13 -15 24 -35 24 -43 0 -19 70 -69 119 -85 19 -7 86 -12 150 -12 64 0 147 -7 186 -15 39 -8 92 -15 118 -15 26 0 64 -7 84 -15 19 -8 46 -15 59 -15 13 0 45 -7 71 -15 26 -8 80 -25 118 -36 95 -30 385 -154 459 -197 34 -20 94 -60 134 -89 40 -30 84 -59 98 -65 13 -6 24 -15 24 -19 0 -4 9 -11 20 -14 11 -4 43 -29 72 -56 28 -27 57 -49 65 -49 7 0 18 -11 23 -25 5 -14 21 -30 35 -37 14 -6 25 -14 25 -18 0 -4 39 -47 86 -96 47 -49 92 -101 99 -115 8 -15 21 -29 30 -33 9 -3 20 -19 26 -34 5 -16 21 -34 34 -40 17 -8 25 -20 25 -38 0 -16 11 -35 30 -52 17 -15 30 -35 30 -45 0 -11 13 -31 28 -46 17 -15 32 -42 36 -63 4 -22 16 -42 30 -51 16 -11 25 -29 29 -58 4 -27 15 -50 31 -66 16 -15 26 -35 26 -53 0 -38 17 -80 41 -103 12 -11 19 -31 19 -55 0 -53 17 -106 40 -127 16 -14 20 -31 20 -75 0 -75 17 -166 41 -212 18 -34 19 -62 19 -355 0 -295 -2 -321 -20 -361 -22 -49 -40 -143 -40 -213 0 -30 -7 -55 -18 -70 -25 -33 -42 -84 -42 -130 0 -25 -7 -45 -19 -56 -24 -23 -41 -65 -41 -104 0 -19 -9 -37 -25 -51 -15 -13 -28 -37 -32 -60 -3 -21 -19 -55 -34 -75 -16 -20 -29 -46 -29 -59 0 -14 -10 -30 -24 -40 -14 -8 -28 -30 -31 -47 -4 -18 -20 -44 -36 -59 -16 -15 -29 -33 -29 -41 0 -7 -13 -26 -30 -42 -16 -16 -30 -37 -30 -47 0 -10 -11 -24 -25 -30 -14 -6 -28 -21 -31 -33 -3 -12 -19 -32 -35 -44 -16 -12 -29 -26 -29 -31 0 -18 -173 -183 -300 -285 -25 -20 -49 -42 -55 -49 -5 -7 -35 -27 -65 -44 -30 -18 -91 -56 -135 -84 -44 -28 -136 -78 -205 -110 -69 -33 -134 -64 -145 -70 -11 -6 -33 -15 -50 -19 -35 -9 -111 -35 -140 -49 -11 -5 -40 -13 -65 -19 -25 -5 -63 -14 -85 -19 -112 -27 -201 -43 -305 -54 -169 -19 -9104 -19 -9265 0 -355 40 -722 169 -1020 357 -38 25 -77 48 -85 52 -66 31 -450 374 -450 402 0 5 -14 19 -30 31 -17 12 -30 27 -30 34 0 7 -13 25 -29 40 -16 16 -32 39 -35 52 -4 13 -15 28 -26 34 -11 6 -27 27 -35 47 -9 20 -24 43 -35 50 -11 8 -20 23 -20 33 0 11 -13 34 -29 52 -16 18 -32 47 -35 64 -4 17 -18 42 -32 54 -13 13 -24 34 -24 47 0 27 -14 58 -40 88 -10 11 -20 39 -23 63 -3 24 -16 60 -30 80 -16 25 -27 57 -30 96 -4 39 -14 70 -28 90 -17 23 -24 50 -30 115 -9 107 -18 156 -37 201 -12 27 -17 89 -20 266 -4 230 -2 251 33 374 8 30 18 98 21 150 4 66 11 103 23 120 25 35 41 87 41 128 0 22 10 50 26 73 14 21 28 57 31 81 3 24 13 52 23 63 25 29 40 60 40 86 0 12 14 37 30 56 17 18 30 44 30 57 0 13 10 31 21 42 12 10 30 38 40 62 10 23 22 42 28 42 5 0 16 18 25 39 8 22 25 45 36 51 11 6 22 21 26 34 3 13 19 36 35 52 16 15 29 32 29 38 0 10 17 29 88 98 17 17 32 38 32 45 0 8 8 16 18 20 9 4 33 22 53 42 70 70 135 127 177 155 23 16 42 32 42 37 0 7 85 69 94 69 2 0 44 27 93 59 131 87 317 178 463 228 41 14 80 29 85 33 6 4 29 11 53 15 24 4 56 13 70 21 15 8 42 14 60 14 18 0 42 5 53 11 11 5 53 14 93 18 83 10 184 54 202 90 6 12 22 33 35 47 24 25 24 29 29 282 4 210 8 262 21 287 20 37 39 143 39 217 0 39 6 62 19 79 23 29 41 91 41 140 0 20 8 47 18 60 23 29 42 83 42 117 0 14 11 42 25 63 14 20 28 54 32 75 3 22 16 50 29 64 13 14 27 41 30 60 4 19 18 48 30 63 13 15 28 45 33 65 6 20 19 43 30 49 11 7 23 28 27 47 3 20 16 41 29 50 12 8 26 27 29 42 4 15 19 42 32 58 71 88 94 119 94 128 0 5 12 23 28 39 15 15 40 44 56 62 41 50 91 107 109 126 9 9 22 22 29 30 7 7 28 28 46 45 17 18 32 37 32 44 0 6 8 13 18 16 9 3 42 30 73 58 81 77 151 136 185 157 16 10 44 32 62 49 18 17 58 46 89 64 30 18 65 40 78 48 134 88 419 231 548 275 42 14 89 33 105 41 15 7 39 14 53 14 14 0 34 7 45 15 10 8 30 15 44 15 14 0 51 9 83 20 31 11 66 20 78 20 11 0 48 6 82 14 97 23 194 38 292 46 125 9 460 9 580 0z" fill="#ffffff"/>
<path d="M7406 6545 c-23 -8 -59 -35 -88 -67 l-48 -53 0 -92 c0 -106 -14 -82 157 -258 55 -58 106 -105 112 -105 6 0 17 -13 26 -29 8 -16 24 -32 35 -36 11 -3 20 -11 20 -16 0 -6 26 -36 58 -67 32 -31 67 -71 80 -88 19 -28 20 -33 7 -44 -8 -7 -15 -19 -15 -26 0 -7 -13 -20 -28 -28 -15 -8 -33 -26 -40 -40 -6 -14 -15 -26 -19 -26 -12 0 -223 -208 -223 -219 0 -5 -9 -13 -20 -16 -11 -4 -27 -20 -35 -36 -9 -16 -22 -29 -30 -29 -9 0 -21 -12 -28 -27 -6 -16 -22 -36 -34 -46 -21 -17 -23 -27 -23 -111 0 -90 1 -94 30 -124 17 -18 30 -36 30 -40 0 -9 65 -43 121 -63 33 -11 44 -10 98 11 34 12 74 35 89 50 15 16 33 34 40 42 7 7 21 21 31 32 10 10 25 25 32 33 8 8 62 62 122 119 59 57 107 108 107 113 0 5 9 13 20 16 11 4 26 17 33 30 6 13 29 35 50 49 32 22 41 24 62 14 14 -6 25 -17 25 -25 0 -8 13 -22 30 -31 16 -9 30 -20 30 -24 0 -12 267 -278 279 -278 6 0 16 -10 22 -22 26 -50 89 -99 152 -118 58 -18 66 -19 117 -4 81 23 140 81 140 139 0 14 5 35 10 46 18 32 -13 156 -47 190 -15 16 -35 36 -44 46 -13 14 -238 238 -297 295 -7 7 -36 35 -63 61 -27 26 -49 55 -49 63 0 12 92 112 195 213 13 13 49 50 66 68 8 8 60 59 117 113 91 87 104 104 113 147 25 106 8 204 -43 246 -101 86 -217 88 -303 5 -16 -16 -65 -62 -107 -103 -43 -41 -78 -78 -78 -84 0 -5 -9 -13 -20 -16 -11 -4 -27 -20 -35 -36 -9 -16 -22 -29 -30 -29 -8 0 -21 -13 -30 -29 -8 -16 -24 -32 -35 -36 -11 -3 -20 -11 -20 -16 0 -11 -37 -48 -86 -85 l-30 -23 -42 20 c-23 12 -42 26 -42 31 0 6 -28 39 -62 73 -35 35 -68 70 -74 77 -7 7 -73 72 -147 145 -176 171 -232 197 -341 158z" fill="#ffffff"/>
<path d="M10383 6540 c-23 -10 -59 -36 -80 -57 l-38 -37 -3 -107 -4 -107 31 -33 c17 -17 31 -36 31 -40 0 -5 13 -15 29 -23 16 -9 31 -24 34 -35 3 -12 17 -25 31 -31 14 -5 26 -14 26 -19 0 -10 122 -135 203 -208 26 -23 47 -46 47 -52 0 -5 9 -13 20 -16 30 -9 53 -60 40 -85 -6 -11 -118 -127 -248 -256 l-237 -236 -3 -108 -4 -109 36 -36 c20 -20 36 -40 36 -44 0 -5 32 -19 71 -31 70 -21 72 -21 128 -4 55 18 104 62 331 297 9 10 41 42 60 61 6 6 42 41 80 79 37 37 77 67 87 67 11 0 40 -19 65 -42 25 -24 66 -62 92 -85 25 -23 46 -46 46 -52 0 -5 9 -13 20 -16 11 -4 27 -20 35 -36 9 -16 22 -29 30 -29 8 0 19 -10 26 -21 6 -12 53 -63 104 -114 84 -83 99 -93 154 -109 61 -17 63 -17 127 4 47 16 68 29 76 46 6 13 19 26 29 29 10 3 20 14 23 23 12 45 17 118 10 168 -7 58 -10 62 -102 156 -41 41 -52 52 -93 94 -10 11 -24 25 -31 32 -7 7 -59 60 -116 117 -57 58 -107 105 -111 105 -5 0 -18 15 -29 33 -22 39 -18 53 32 103 17 18 37 38 44 45 8 8 76 76 153 151 76 76 139 141 139 146 0 5 11 14 25 20 14 7 28 20 32 29 3 10 18 28 32 40 25 20 26 25 26 125 l-1 104 -39 40 c-58 58 -90 75 -152 81 -44 5 -63 2 -100 -17 -38 -19 -107 -76 -158 -131 -40 -43 -112 -114 -172 -170 -39 -37 -76 -76 -82 -87 -6 -11 -20 -23 -30 -27 -11 -3 -23 -14 -26 -25 -3 -10 -21 -28 -40 -39 -33 -19 -36 -19 -65 -3 -16 9 -35 26 -41 37 -6 11 -47 52 -90 90 -43 39 -80 78 -84 87 -3 9 -15 20 -26 23 -10 4 -26 19 -34 35 -8 16 -24 31 -35 35 -11 3 -20 11 -20 16 0 19 -122 130 -170 154 -60 30 -119 32 -177 5z" fill="#ffffff"/>
<path d="M9345 4071 c-49 -3 -96 -10 -102 -14 -7 -4 -39 -12 -70 -17 -63 -10 -234 -62 -298 -91 -137 -60 -205 -95 -282 -145 -131 -84 -164 -106 -194 -134 -16 -14 -54 -47 -85 -75 -69 -62 -95 -89 -178 -189 -14 -17 -40 -47 -57 -66 -17 -19 -33 -47 -36 -62 -3 -15 -14 -30 -24 -33 -11 -4 -24 -23 -31 -46 -6 -22 -20 -44 -29 -50 -10 -5 -23 -28 -30 -52 -6 -23 -20 -52 -31 -64 -11 -11 -24 -39 -29 -61 -5 -23 -19 -57 -32 -76 -15 -20 -27 -57 -31 -91 -3 -32 -15 -68 -27 -84 -15 -21 -23 -57 -34 -167 -8 -76 -19 -154 -24 -172 -6 -18 -13 -64 -17 -102 -6 -60 -4 -74 14 -104 12 -20 24 -52 28 -71 4 -26 14 -39 31 -46 13 -5 26 -15 29 -23 9 -24 66 -41 135 -40 52 1 74 7 107 28 23 14 42 32 42 38 0 7 12 22 28 34 27 22 27 22 32 181 4 125 9 165 23 191 10 18 23 70 29 115 7 51 18 90 29 102 10 11 24 43 31 70 7 28 22 62 34 77 12 15 26 42 29 60 4 18 20 48 36 66 16 18 29 39 29 46 0 8 7 16 14 19 8 3 22 21 32 39 9 18 27 44 41 58 13 14 45 48 72 75 49 51 136 129 181 163 116 86 434 232 506 232 12 0 39 7 60 16 57 24 473 25 554 1 30 -9 89 -26 130 -37 101 -29 303 -128 417 -206 95 -64 293 -252 293 -278 0 -7 11 -21 25 -30 14 -9 25 -23 25 -31 0 -8 13 -29 28 -47 16 -18 32 -46 36 -61 4 -16 18 -40 31 -53 14 -14 25 -33 25 -44 0 -27 19 -72 39 -95 11 -12 21 -44 25 -80 4 -33 17 -80 30 -105 21 -40 24 -62 28 -211 5 -155 15 -209 38 -209 4 0 14 -16 20 -35 8 -24 25 -44 53 -62 36 -23 53 -27 119 -27 68 0 81 3 119 29 23 16 46 41 52 55 6 14 20 36 31 48 19 22 21 36 20 165 -2 114 -6 153 -22 199 -11 32 -23 92 -27 135 -4 50 -15 96 -30 128 -13 28 -27 69 -31 93 -4 24 -17 59 -30 77 -13 19 -26 51 -30 70 -3 20 -16 48 -29 63 -12 15 -27 42 -33 60 -6 19 -23 47 -37 64 -14 16 -25 36 -25 43 0 8 -13 28 -30 45 -16 17 -30 37 -30 44 0 8 -11 21 -25 30 -14 9 -25 21 -25 27 0 16 -132 165 -157 177 -12 6 -24 20 -28 31 -3 11 -14 22 -23 26 -9 3 -36 23 -59 46 -147 141 -471 309 -708 368 -49 12 -115 29 -147 36 -65 17 -423 27 -563 16z" fill="#ffffff"/>
</g>
</svg>